# xmcd
#
# Track frame offsets:
#	150
#	14240
#	24410
#	37285
#	57232
#	77440
#	91404
#	105915
#	120647
#	135990
#	153575
#	170577
#	188655
#	205437
#	218485
#	239857
#	255902
#	271422
#	283792
#	300587
#	317767
#
# Disc length: 4436 seconds
#
# Revision: 1701995311
# Processed by: cddbd v1.5.2PL0 Copyright (c) Steve Scherf et al.
# Submitted via: EZCDAudioConverter 8.0.2.1
#
DISCID=26115215
DTITLE=Various Artist - Gone Country
DYEAR=1998
DGENRE=Country
TTITLE0=The Mavericks - I Don't Care If You Love Me Anymore
TTITLE1=Jack Ingram - Flutter
TTITLE2=Dead Ringer Band -  Am I the Only One (Who's Ever Felt This Way)
TTITLE3=The Buffalo Club -  You Should See Her Now
TTITLE4=Gina Jeffreys - I Haven't Got a Heart
TTITLE5=Tina Martyn - Wham Bam
TTITLE6=Rhett Akins - More Than Everything
TTITLE7=Matraca Berg - That Train Don't Run
TTITLE8=Vince Gill -  You and You Alone
TTITLE9=Trisha Yearwood - Down on My Knees
TTITLE10=Delbert McClinton - Sending Me Angels
TTITLE11=Kris Tyler - Keeping Your Kisses
TTITLE12=Tania Kernaghan -  Leave Like a Man
TTITLE13=David Lee Murphy -  All Lit Up in Love
TTITLE14=Raybon Brothers - Butterfly Kisses
TTITLE15=Lee Ann Womack -  the Fool
TTITLE16=Mark Chesnutt - Thank You for Believers
TTITLE17=Gary Allan -  Her Man
TTITLE18=Frazier River Band -  Last Request
TTITLE19=Troy Cassar-Daley -  Ramblin Man
TTITLE20=Marty Stuart - Thanks to You
EXTD=
EXTT0=
EXTT1=
EXTT2=
EXTT3=
EXTT4=
EXTT5=
EXTT6=
EXTT7=
EXTT8=
EXTT9=
EXTT10=
EXTT11=
EXTT12=
EXTT13=
EXTT14=
EXTT15=
EXTT16=
EXTT17=
EXTT18=
EXTT19=
EXTT20=
PLAYORDER=
